<svg xmlns:xlink="http://www.w3.org/1999/xlink" xmlns="http://www.w3.org/2000/svg" width="206" height="104" viewBox="52 0 49.5 50" fill="none">
<g clip-path="url(#clip0)">
<path d="M74.7917 28.125L72.0417 30.875C71.6234 29.1911 70.6537 27.6957 69.2869 26.6269C67.9202 25.5581 66.235 24.9774 64.5 24.9774C62.765 24.9774 61.0798 25.5581 59.7131 26.6269C58.3463 27.6957 57.3766 29.1911 56.9583 30.875L54.2083 28.125L52 30.3333L55.5833 33.9167L55.125 34.375V37.5H52V40.625H55.125V40.7917C55.2844 41.8097 55.5714 42.8037 55.9792 43.75L52 47.7917L54.2083 50L57.6458 46.5625C58.4637 47.606 59.5025 48.4553 60.6875 49.0497C61.8726 49.644 63.1746 49.9686 64.5 50C65.8254 49.9686 67.1274 49.644 68.3125 49.0497C69.4976 48.4553 70.5363 47.606 71.3542 46.5625L74.7917 50L77 47.7917L73.0208 43.75C73.4337 42.7838 73.7208 41.7685 73.875 40.7292V40.5208H77V37.5H73.875V34.375L73.4167 33.9167L77 30.3333L74.7917 28.125ZM64.5 28.125C65.7432 28.125 66.9355 28.6189 67.8146 29.4979C68.6936 30.377 69.1875 31.5693 69.1875 32.8125H59.8125C59.8125 31.5693 60.3064 30.377 61.1854 29.4979C62.0645 28.6189 63.2568 28.125 64.5 28.125V28.125ZM70.75 40.625C70.5974 42.2309 69.8899 43.7335 68.7492 44.8742C67.6085 46.0149 66.1059 46.7224 64.5 46.875C62.8941 46.7224 61.3915 46.0149 60.2508 44.8742C59.1101 43.7335 58.4026 42.2309 58.25 40.625V35.9375H70.75V40.625ZM101.5 20V22.625L80.125 36.1875V32.5L97.8333 21.3125L70.75 4.16667V23.875C69.798 23.2063 68.7422 22.6995 67.625 22.375V1.3125L70 0L101.5 20Z" fill="#444444"/>
</g>
<defs>
<clipPath id="clip0">
<rect width="206" height="104" fill="white"/>
</clipPath>
</defs>
</svg>