<svg xmlns:xlink="http://www.w3.org/1999/xlink" xmlns="http://www.w3.org/2000/svg" width="206" height="104" viewBox="156 0 50 50" fill="none">
<g clip-path="url(#clip0)">
<path fill-rule="evenodd" clip-rule="evenodd" d="M184.125 3.125L187.25 0H202.875L206 3.125V18.75L202.875 21.875H187.25L184.125 18.75V3.125ZM187.25 3.125V18.75H202.875V3.125H187.25ZM156 31.25V12.5L159.125 9.37499H174.75L177.875 12.5V28.125L176.312 29.6875L176.313 29.6876L177.875 28.125H193.5L196.625 31.25V46.875L193.5 50H177.875H174.75V49.9997L174.75 50H159.125L156 46.875V31.25ZM159.125 46.875V31.25H174.75V46.875H159.125ZM177.875 46.875V31.25H193.5V46.875H177.875ZM159.125 28.125V12.5H174.75V28.125H159.125Z" fill="#444444"/>
</g>
<defs>
<clipPath id="clip0">
<rect width="206" height="104" fill="white"/>
</clipPath>
</defs>
</svg>

