<svg xmlns="http://www.w3.org/2000/svg" xmlns:xlink="http://www.w3.org/1999/xlink" version="1.1" id="Layer_1" x="0px" y="0px" viewBox="0 0.5 24.81 24.12" style="enable-background:new 0 0 125 25;" xml:space="preserve" width="201" height="345">
<style type="text/css">
	.st0{fill:#808285;}
</style>

<g>
	<path class="st0" d="M12.5,0.5C5.6,0.5,0,6,0,12.8c0,5.4,3.6,10,8.5,11.7c0.6,0.1,0.9-0.3,0.9-0.6c0-0.3,0-1.3,0-2.3   c-3.5,0.7-4.2-1.5-4.2-1.5c-0.6-1.4-1.4-1.8-1.4-1.8c-1.1-0.8,0.1-0.7,0.1-0.7c1.3,0.1,1.9,1.3,1.9,1.3c1.1,1.9,2.9,1.3,3.6,1   c0.1-0.8,0.4-1.3,0.8-1.6c-2.8-0.3-5.7-1.4-5.7-6.1c0-1.3,0.5-2.4,1.3-3.3C5.7,8.5,5.3,7.3,5.9,5.6c0,0,1.1-0.3,3.4,1.3   c1-0.3,2.1-0.4,3.1-0.4c1.1,0,2.1,0.1,3.1,0.4c2.4-1.6,3.4-1.3,3.4-1.3c0.7,1.7,0.3,2.9,0.1,3.3c0.8,0.9,1.3,2,1.3,3.3   c0,4.7-2.9,5.8-5.7,6.1c0.4,0.4,0.8,1.1,0.8,2.3c0,1.6,0,3,0,3.4c0,0.3,0.2,0.7,0.9,0.6c5-1.6,8.5-6.2,8.5-11.7   C25,6,19.4,0.5,12.5,0.5z"></path>
</g>

</svg>