<svg
          xmlns:xlink="http://www.w3.org/1999/xlink"
          xmlns="http://www.w3.org/2000/svg"
          fill="none"
          viewBox="8 0 34.38 50"
          class="w-12 mx-auto fill-[#444444] hover:fill-blue-600"
        >
          <g clip-path="url(#clip0)">
            <path
              d="M25.1875 0C26.7663 0 28.2881 0.203451 29.7529 0.610352C31.2178 1.01725 32.585 1.59505 33.8545 2.34375C35.1403 3.09245 36.304 3.98763 37.3457 5.0293C38.3874 6.07096 39.2826 7.2347 40.0312 8.52051C40.7799 9.79004 41.3577 11.1572 41.7646 12.6221C42.1716 14.0869 42.375 15.6087 42.375 17.1875C42.375 19.5475 41.9274 21.7367 41.0322 23.7549C40.137 25.7731 38.8594 27.6042 37.1992 29.248C35.8483 30.5827 34.8066 32.0719 34.0742 33.7158C33.3581 35.3597 33 37.1419 33 39.0625V45.3125C33 45.9635 32.8779 46.5739 32.6338 47.1436C32.3896 47.7132 32.056 48.2096 31.6328 48.6328C31.2096 49.056 30.7132 49.3896 30.1436 49.6338C29.5739 49.8779 28.9635 50 28.3125 50H22.0625C21.4115 50 20.8011 49.8779 20.2314 49.6338C19.6618 49.3896 19.1654 49.056 18.7422 48.6328C18.319 48.2096 17.9854 47.7132 17.7412 47.1436C17.4971 46.5739 17.375 45.9635 17.375 45.3125V39.0625C17.375 37.1419 17.0088 35.3597 16.2764 33.7158C15.5602 32.0719 14.5267 30.5827 13.1758 29.248C11.5156 27.6042 10.238 25.7731 9.34277 23.7549C8.44759 21.7367 8 19.5475 8 17.1875C8 15.6087 8.20345 14.0869 8.61035 12.6221C9.01725 11.1572 9.59505 9.79004 10.3438 8.52051C11.0924 7.2347 11.9876 6.07096 13.0293 5.0293C14.071 3.98763 15.2266 3.09245 16.4961 2.34375C17.7819 1.59505 19.1572 1.01725 20.6221 0.610352C22.0869 0.203451 23.6087 0 25.1875 0ZM28.3125 46.875C28.7357 46.875 29.1019 46.7204 29.4111 46.4111C29.7204 46.1019 29.875 45.7357 29.875 45.3125V40.625H20.5V45.3125C20.5 45.7357 20.6546 46.1019 20.9639 46.4111C21.2731 46.7204 21.6393 46.875 22.0625 46.875H28.3125ZM29.9482 37.5C30.1598 35.4004 30.6969 33.4961 31.5596 31.7871C32.4222 30.0781 33.5859 28.4831 35.0508 27.002C36.4017 25.6348 37.4352 24.1455 38.1514 22.5342C38.8838 20.9066 39.25 19.1243 39.25 17.1875C39.25 15.2507 38.8757 13.4277 38.127 11.7188C37.3945 10.0098 36.3936 8.52051 35.124 7.25098C33.8545 5.98145 32.3652 4.98047 30.6562 4.24805C28.9473 3.49935 27.1243 3.125 25.1875 3.125C23.2507 3.125 21.4277 3.49935 19.7188 4.24805C18.0098 4.98047 16.5205 5.98145 15.251 7.25098C13.9814 8.52051 12.9723 10.0098 12.2236 11.7188C11.4912 13.4277 11.125 15.2507 11.125 17.1875C11.125 19.1243 11.4831 20.9066 12.1992 22.5342C12.9316 24.1455 13.9733 25.6348 15.3242 27.002C16.7891 28.4831 17.9528 30.0781 18.8154 31.7871C19.6781 33.4961 20.2152 35.4004 20.4268 37.5H29.9482Z"
            ></path>
          </g>
          <defs>
            <clipPath id="clip0">
              <rect width="206" height="104" fill="white"></rect>
            </clipPath>
          </defs>
          </svg>