<svg xmlns:xlink="http://www.w3.org/1999/xlink" xmlns="http://www.w3.org/2000/svg" width="206" height="104" viewBox="110.09 0 37.66 50.18" fill="none">
<g clip-path="url(#clip0)">
<path d="M74.7917 81.125L72.0417 83.875C71.6234 82.1911 70.6537 80.6957 69.2869 79.6269C67.9202 78.5581 66.235 77.9774 64.5 77.9774C62.765 77.9774 61.0798 78.5581 59.7131 79.6269C58.3463 80.6957 57.3766 82.1911 56.9583 83.875L54.2083 81.125L52 83.3333L55.5833 86.9167L55.125 87.375V90.5H52V93.625H55.125V93.7917C55.2844 94.8097 55.5714 95.8037 55.9792 96.75L52 100.792L54.2083 103L57.6458 99.5625C58.4637 100.606 59.5025 101.455 60.6875 102.05C61.8726 102.644 63.1746 102.969 64.5 103C65.8254 102.969 67.1274 102.644 68.3125 102.05C69.4976 101.455 70.5363 100.606 71.3542 99.5625L74.7917 103L77 100.792L73.0208 96.75C73.4337 95.7838 73.7208 94.7685 73.875 93.7292V93.5208H77V90.5H73.875V87.375L73.4167 86.9167L77 83.3333L74.7917 81.125ZM64.5 81.125C65.7432 81.125 66.9355 81.6189 67.8146 82.4979C68.6936 83.377 69.1875 84.5693 69.1875 85.8125H59.8125C59.8125 84.5693 60.3064 83.377 61.1854 82.4979C62.0645 81.6189 63.2568 81.125 64.5 81.125V81.125ZM70.75 93.625C70.5974 95.2309 69.8899 96.7335 68.7492 97.8742C67.6085 99.0149 66.1059 99.7224 64.5 99.875C62.8941 99.7224 61.3915 99.0149 60.2508 97.8742C59.1101 96.7335 58.4026 95.2309 58.25 93.625V88.9375H70.75V93.625ZM101.5 73V75.625L80.125 89.1875V85.5L97.8333 74.3125L70.75 57.1667V76.875C69.798 76.2063 68.7422 75.6995 67.625 75.375V54.3125L70 53L101.5 73Z" fill="#37B34A"/>

</g>
<defs>
<clipPath id="clip0">
<rect width="206" height="104" fill="white"/>
</clipPath>
</defs>
</svg>